<svg width="200" height="200" viewBox="0 0 200 200" xmlns="http://www.w3.org/2000/svg">
  <!-- Ground -->
  <rect x="0" y="160" width="200" height="40" fill="none" stroke="#000" stroke-width="2"/>
  
  <!-- Ground loops -->
  <g stroke="#000" stroke-width="2" fill="none">
    <path d="M 40 170 Q 60 150 80 170 Q 100 150 120 170 Q 140 150 160 170"/>
    <path d="M 40 180 Q 60 160 80 180 Q 100 160 120 180 Q 140 160 160 180"/>
  </g>
  
  <!-- Heat pump unit -->
  <rect x="80" y="100" width="40" height="30" fill="none" stroke="#000" stroke-width="3" rx="3"/>
  
  <!-- Heat pump symbol -->
  <g fill="none" stroke="#000" stroke-width="2">
    <path d="M 90 110 L 100 105 L 110 110 L 105 115 L 100 120 L 95 115 Z"/>
  </g>
  
  <!-- Pipes to ground -->
  <g stroke="#000" stroke-width="3" stroke-linecap="round">
    <line x1="100" y1="130" x2="100" y2="160"/>
    <line x1="80" y1="160" x2="100" y2="160"/>
    <line x1="120" y1="160" x2="100" y2="160"/>
  </g>
  
  <!-- House -->
  <rect x="60" y="80" width="20" height="20" fill="none" stroke="#000" stroke-width="2"/>
  <polygon points="60,80 70,70 80,80" fill="none" stroke="#000" stroke-width="2"/>
  
  <!-- Heat symbol -->
  <g fill="none" stroke="#000" stroke-width="2">
    <path d="M 70 85 Q 65 80 70 75 Q 75 80 80 75 Q 85 80 80 85 Q 75 80 70 85"/>
  </g>
</svg>
