<svg width="200" height="200" viewBox="0 0 200 200" xmlns="http://www.w3.org/2000/svg">
  <!-- Sun -->
  <circle cx="100" cy="50" r="20" fill="none" stroke="#000" stroke-width="3"/>
  
  <!-- Sun rays -->
  <g stroke="#000" stroke-width="2" stroke-linecap="round">
    <line x1="100" y1="15" x2="100" y2="30"/>
    <line x1="100" y1="70" x2="100" y2="85"/>
    <line x1="65" y1="50" x2="75" y2="50"/>
    <line x1="125" y1="50" x2="135" y2="50"/>
    <line x1="78" y1="22" x2="85" y2="29"/>
    <line x1="122" y1="22" x2="115" y2="29"/>
    <line x1="78" y1="78" x2="85" y2="71"/>
    <line x1="122" y1="78" x2="115" y2="71"/>
  </g>
  
  <!-- Solar collector -->
  <rect x="50" y="120" width="100" height="40" fill="none" stroke="#000" stroke-width="3" rx="3"/>
  
  <!-- Collector tubes -->
  <g stroke="#000" stroke-width="2">
    <line x1="60" y1="130" x2="140" y2="130"/>
    <line x1="60" y1="140" x2="140" y2="140"/>
    <line x1="60" y1="150" x2="140" y2="150"/>
  </g>
  
  <!-- Water tank -->
  <rect x="80" y="90" width="20" height="30" fill="none" stroke="#000" stroke-width="3" rx="3"/>
  
  <!-- Pipes -->
  <g stroke="#000" stroke-width="3" stroke-linecap="round">
    <line x1="100" y1="120" x2="100" y2="90"/>
    <line x1="80" y1="90" x2="100" y2="90"/>
  </g>
  
  <!-- Heat symbol -->
  <g fill="none" stroke="#000" stroke-width="2">
    <path d="M 85 140 Q 80 135 85 130 Q 90 135 95 130 Q 100 135 95 140 Q 90 135 85 140"/>
  </g>
</svg>
